# xmcd CD database file
#
# Track frame offsets:
#	150
#	11047
#	24125
#	33762
#	45325
#	56022
#	68315
#	80412
#	91787
#	104075
#	114850
#	128137
#	141222
#	149687
#	166990
#	178122
#	189137
#	201587
#	212500
#	226295
#
# Disc length: 3159 seconds
#
# Revision: 0
# Processed by: cddbd v1.5.2PL0 Copyright (c) Steve Scherf et al.
# Submitted via: CDex 1.51
#
DISCID=050c5514
DTITLE=Country - Various - Country Hits
DYEAR=1995
DGENRE=Country
TTITLE0=Stop, look and listen - Patsy Cline
TTITLE1=Ruby don't take your love to town - Kenny Rogers
TTITLE2=From a jack to a king - Ned Miller
TTITLE3=Heartaches by the number - Guy Mitchell
TTITLE4=Honky Tonk Angels - Dolly Parton
TTITLE5=Sweet dreams - Faron Young
TTITLE6=Look what they've done to my song - Billie Jo Spears
TTITLE7=Blue eyes cryin' in th rain - Roy Drusky
TTITLE8=I can't find time - Willie Nelson
TTITLE9=I'm so lonesome I could cry - Billie Jo Spears
TTITLE10=Rose Garden - Lynn Anderson
TTITLE11=Where do we go from here - Don Williams
TTITLE12=Abilene - Waylon Jennings
TTITLE13=Your song - Johnny Lee
TTITLE14=Country girl - Faron Young
TTITLE15=Things to talk about - Stonewall Jackson
TTITLE16=Rueben James - Kenny Rogers
TTITLE17=Have I stayed away too long - Tex Ritter
TTITLE18=Home is where you're happy - Willie Nelson
TTITLE19=The heart you brake may be your own - Patsy Cline
EXTD=YEAR: 1995
EXTT0=
EXTT1=
EXTT2=
EXTT3=
EXTT4=
EXTT5=
EXTT6=
EXTT7=
EXTT8=
EXTT9=
EXTT10=
EXTT11=
EXTT12=
EXTT13=
EXTT14=
EXTT15=
EXTT16=
EXTT17=
EXTT18=
EXTT19=
PLAYORDER=
